<svg data-v-423bf9ae="" xmlns="http://www.w3.org/2000/svg" viewBox="0 0 233.69999476841517 60" class="font"><!----><!----><!----><g data-v-423bf9ae="" id="c91b8a34-74b9-455a-af33-3e3edb302768" fill="white" transform="matrix(4.285714149475098,0,0,4.285714149475098,-2.228576183319092,3)"><path d="M4.06 5.74L4.06 5.74L4.06 5.74Q2.27 5.50 1.44 4.77L1.44 4.77L1.44 4.77Q0.62 4.05 0.62 2.70L0.62 2.70L0.62 2.56L0.62 2.56Q0.62 1.11 1.60 0.25L1.60 0.25L1.60 0.25Q2.59-0.60 4.35-0.60L4.35-0.60L4.35-0.60Q6.27-0.60 7.17 0.31L7.17 0.31L7.17 0.31Q8.08 1.22 8.08 3.08L8.08 3.08L8.08 3.40L6.20 3.40L6.20 3.40Q6.20 2.17 5.77 1.60L5.77 1.60L5.77 1.60Q5.33 1.04 4.37 1.04L4.37 1.04L4.24 1.04L4.24 1.04Q3.47 1.04 3.00 1.43L3.00 1.43L3.00 1.43Q2.53 1.82 2.53 2.46L2.53 2.46L2.53 2.55L2.53 2.55Q2.53 3.26 2.98 3.64L2.98 3.64L2.98 3.64Q3.43 4.02 4.66 4.19L4.66 4.19L4.66 4.19Q6.48 4.44 7.33 5.15L7.33 5.15L7.33 5.15Q8.18 5.87 8.18 7.28L8.18 7.28L8.18 7.43L8.18 7.43Q8.18 8.97 7.17 9.83L7.17 9.83L7.17 9.83Q6.17 10.68 4.35 10.68L4.35 10.68L4.35 10.68Q0.52 10.68 0.52 6.96L0.52 6.96L0.52 6.82L2.39 6.82L2.39 6.82Q2.39 9.04 4.28 9.04L4.28 9.04L4.41 9.04L4.41 9.04Q5.28 9.04 5.77 8.62L5.77 8.62L5.77 8.62Q6.26 8.20 6.26 7.50L6.26 7.50L6.26 7.42L6.26 7.42Q6.26 6.69 5.77 6.30L5.77 6.30L5.77 6.30Q5.28 5.91 4.06 5.74ZM15.08 9.68L15.08 9.68L15.08 9.68Q14.24 10.68 12.56 10.68L12.56 10.68L12.56 10.68Q10.88 10.68 10.04 9.68L10.04 9.68L10.04 9.68Q9.20 8.68 9.20 7.01L9.20 7.01L9.20 6.57L9.20 6.57Q9.20 4.89 10.04 3.89L10.04 3.89L10.04 3.89Q10.88 2.90 12.56 2.90L12.56 2.90L12.56 2.90Q14.24 2.90 15.08 3.89L15.08 3.89L15.08 3.89Q15.92 4.89 15.92 6.57L15.92 6.57L15.92 7.01L15.92 7.01Q15.92 8.68 15.08 9.68ZM11.02 7.01L11.02 7.01Q11.02 9.09 12.56 9.09L12.56 9.09L12.56 9.09Q14.10 9.09 14.10 7.01L14.10 7.01L14.10 6.57L14.10 6.57Q14.10 4.48 12.56 4.48L12.56 4.48L12.56 4.48Q11.02 4.48 11.02 6.57L11.02 6.57L11.02 7.01ZM17.16 8.15L17.16 3.08L18.97 3.08L18.97 7.87L18.97 7.87Q18.97 9.09 20.16 9.09L20.16 9.09L20.16 9.09Q21.17 9.09 21.70 8.25L21.70 8.25L21.70 3.08L23.52 3.08L23.52 8.40L23.63 10.50L22.02 10.50L21.85 9.52L21.85 9.52Q21.06 10.68 19.45 10.68L19.45 10.68L19.45 10.68Q18.30 10.68 17.73 9.97L17.73 9.97L17.73 9.97Q17.16 9.25 17.16 8.15L17.16 8.15ZM31.47 5.42L31.47 10.50L29.67 10.50L29.67 5.71L29.67 5.71Q29.67 5.15 29.37 4.82L29.37 4.82L29.37 4.82Q29.08 4.48 28.49 4.48L28.49 4.48L28.49 4.48Q27.47 4.48 26.95 5.33L26.95 5.33L26.95 10.50L25.13 10.50L25.13 5.18L25.00 3.08L26.61 3.08L26.78 4.06L26.78 4.06Q27.58 2.90 29.19 2.90L29.19 2.90L29.19 2.90Q30.34 2.90 30.91 3.61L30.91 3.61L30.91 3.61Q31.47 4.33 31.47 5.42L31.47 5.42ZM35.57 2.90L35.57 2.90L35.57 2.90Q36.81 2.90 37.53 3.77L37.53 3.77L37.53-0.70L39.35-0.70L39.35 8.40L39.47 10.50L37.86 10.50L37.70 9.58L37.70 9.58Q36.99 10.68 35.57 10.68L35.57 10.68L35.57 10.68Q34.13 10.68 33.46 9.70L33.46 9.70L33.46 9.70Q32.79 8.71 32.79 7.01L32.79 7.01L32.79 6.57L32.79 6.57Q32.79 4.86 33.45 3.88L33.45 3.88L33.45 3.88Q34.12 2.90 35.57 2.90ZM37.53 8.25L37.53 8.25L37.53 5.33L37.53 5.33Q37.02 4.48 36.08 4.48L36.08 4.48L36.08 4.48Q34.61 4.48 34.61 6.57L34.61 6.57L34.61 7.01L34.61 7.01Q34.61 9.09 36.08 9.09L36.08 9.09L36.08 9.09Q37.03 9.09 37.53 8.25ZM41.02 10.50L41.02-0.42L47.42-0.42L47.42 1.22L42.90 1.22L42.90 4.12L46.72 4.12L46.72 5.74L42.90 5.74L42.90 10.50L41.02 10.50ZM49.83 3.08L51.45 8.23L53.09 3.08L55.05 3.08L52.43 10.14L51.45 13.30L49.29 13.30L50.47 10.14L47.85 3.08L49.83 3.08Z"></path></g><!----><!----></svg>