<svg data-v-fde0c5aa="" xmlns="http://www.w3.org/2000/svg" viewBox="0 0 300 300" class="iconLeft"><!----><defs data-v-fde0c5aa=""><!----></defs><rect data-v-fde0c5aa="" fill="transparent" x="0" y="0" width="300px" height="300px" class="logo-background-square"></rect><defs data-v-fde0c5aa=""><!----></defs><g data-v-fde0c5aa="" id="42faec69-3db2-4d6b-b32b-647f1cd2ca1a" fill="#000000" transform="matrix(2.920560836791992,0,0,2.920560836791992,99.22313042556338,131.60046679297236)"><path d="M4.06 5.74L4.06 5.74L4.06 5.74Q2.27 5.50 1.44 4.77L1.44 4.77L1.44 4.77Q0.62 4.05 0.62 2.70L0.62 2.70L0.62 2.56L0.62 2.56Q0.62 1.11 1.60 0.25L1.60 0.25L1.60 0.25Q2.59-0.60 4.35-0.60L4.35-0.60L4.35-0.60Q6.27-0.60 7.17 0.31L7.17 0.31L7.17 0.31Q8.08 1.22 8.08 3.08L8.08 3.08L8.08 3.40L6.20 3.40L6.20 3.40Q6.20 2.17 5.77 1.60L5.77 1.60L5.77 1.60Q5.33 1.04 4.37 1.04L4.37 1.04L4.24 1.04L4.24 1.04Q3.47 1.04 3.00 1.43L3.00 1.43L3.00 1.43Q2.53 1.82 2.53 2.46L2.53 2.46L2.53 2.55L2.53 2.55Q2.53 3.26 2.98 3.64L2.98 3.64L2.98 3.64Q3.43 4.02 4.66 4.19L4.66 4.19L4.66 4.19Q6.48 4.44 7.33 5.15L7.33 5.15L7.33 5.15Q8.18 5.87 8.18 7.28L8.18 7.28L8.18 7.43L8.18 7.43Q8.18 8.97 7.17 9.83L7.17 9.83L7.17 9.83Q6.17 10.68 4.35 10.68L4.35 10.68L4.35 10.68Q0.52 10.68 0.52 6.96L0.52 6.96L0.52 6.82L2.39 6.82L2.39 6.82Q2.39 9.04 4.28 9.04L4.28 9.04L4.41 9.04L4.41 9.04Q5.28 9.04 5.77 8.62L5.77 8.62L5.77 8.62Q6.26 8.20 6.26 7.50L6.26 7.50L6.26 7.42L6.26 7.42Q6.26 6.69 5.77 6.30L5.77 6.30L5.77 6.30Q5.28 5.91 4.06 5.74ZM15.08 9.68L15.08 9.68L15.08 9.68Q14.24 10.68 12.56 10.68L12.56 10.68L12.56 10.68Q10.88 10.68 10.04 9.68L10.04 9.68L10.04 9.68Q9.20 8.68 9.20 7.01L9.20 7.01L9.20 6.57L9.20 6.57Q9.20 4.89 10.04 3.89L10.04 3.89L10.04 3.89Q10.88 2.90 12.56 2.90L12.56 2.90L12.56 2.90Q14.24 2.90 15.08 3.89L15.08 3.89L15.08 3.89Q15.92 4.89 15.92 6.57L15.92 6.57L15.92 7.01L15.92 7.01Q15.92 8.68 15.08 9.68ZM11.02 7.01L11.02 7.01Q11.02 9.09 12.56 9.09L12.56 9.09L12.56 9.09Q14.10 9.09 14.10 7.01L14.10 7.01L14.10 6.57L14.10 6.57Q14.10 4.48 12.56 4.48L12.56 4.48L12.56 4.48Q11.02 4.48 11.02 6.57L11.02 6.57L11.02 7.01ZM17.16 8.15L17.16 3.08L18.97 3.08L18.97 7.87L18.97 7.87Q18.97 9.09 20.16 9.09L20.16 9.09L20.16 9.09Q21.17 9.09 21.70 8.25L21.70 8.25L21.70 3.08L23.52 3.08L23.52 8.40L23.63 10.50L22.02 10.50L21.85 9.52L21.85 9.52Q21.06 10.68 19.45 10.68L19.45 10.68L19.45 10.68Q18.30 10.68 17.73 9.97L17.73 9.97L17.73 9.97Q17.16 9.25 17.16 8.15L17.16 8.15ZM31.47 5.42L31.47 10.50L29.67 10.50L29.67 5.71L29.67 5.71Q29.67 5.15 29.37 4.82L29.37 4.82L29.37 4.82Q29.08 4.48 28.49 4.48L28.49 4.48L28.49 4.48Q27.47 4.48 26.95 5.33L26.95 5.33L26.95 10.50L25.13 10.50L25.13 5.18L25.00 3.08L26.61 3.08L26.78 4.06L26.78 4.06Q27.58 2.90 29.19 2.90L29.19 2.90L29.19 2.90Q30.34 2.90 30.91 3.61L30.91 3.61L30.91 3.61Q31.47 4.33 31.47 5.42L31.47 5.42ZM35.57 2.90L35.57 2.90L35.57 2.90Q36.81 2.90 37.53 3.77L37.53 3.77L37.53-0.70L39.35-0.70L39.35 8.40L39.47 10.50L37.86 10.50L37.70 9.58L37.70 9.58Q36.99 10.68 35.57 10.68L35.57 10.68L35.57 10.68Q34.13 10.68 33.46 9.70L33.46 9.70L33.46 9.70Q32.79 8.71 32.79 7.01L32.79 7.01L32.79 6.57L32.79 6.57Q32.79 4.86 33.45 3.88L33.45 3.88L33.45 3.88Q34.12 2.90 35.57 2.90ZM37.53 8.25L37.53 8.25L37.53 5.33L37.53 5.33Q37.02 4.48 36.08 4.48L36.08 4.48L36.08 4.48Q34.61 4.48 34.61 6.57L34.61 6.57L34.61 7.01L34.61 7.01Q34.61 9.09 36.08 9.09L36.08 9.09L36.08 9.09Q37.03 9.09 37.53 8.25ZM41.02 10.50L41.02-0.42L47.42-0.42L47.42 1.22L42.90 1.22L42.90 4.12L46.72 4.12L46.72 5.74L42.90 5.74L42.90 10.50L41.02 10.50ZM49.83 3.08L51.45 8.23L53.09 3.08L55.05 3.08L52.43 10.14L51.45 13.30L49.29 13.30L50.47 10.14L47.85 3.08L49.83 3.08Z"></path></g><defs data-v-fde0c5aa=""><linearGradient data-v-fde0c5aa="" gradientTransform="rotate(25)" id="bd787f25-456c-4257-befe-8c6526cb1fc8" x1="0%" y1="0%" x2="100%" y2="0%"><stop data-v-fde0c5aa="" offset="0%" stop-color="#4E1A70" stop-opacity="1"></stop><stop data-v-fde0c5aa="" offset="100%" stop-color="#2B4CF2" stop-opacity="1"></stop></linearGradient></defs><g data-v-fde0c5aa="" id="327e8619-b1d6-419c-ad2c-3d18b08a4b38" stroke="none" fill="url(#bd787f25-456c-4257-befe-8c6526cb1fc8)" transform="matrix(0.6133025884628296,0,0,0.6133025884628296,33.20522124095511,119.33563026833086)"><path d="M87.092 40.527a29.622 29.622 0 0 0-12.774-15.342c-.095-.057-.185-.112-.278-.165L53.706 13.281V5.396a5.388 5.388 0 0 0-1.58-3.816 5.395 5.395 0 0 0-9.212 3.816V73.422a26.131 26.131 0 0 0-3.104-.961 23.129 23.129 0 0 0-1.381-.308 31.287 31.287 0 0 0-6.03-.578c-11.773 0-21.32 6.361-21.32 14.212 0 7.848 9.547 14.213 21.32 14.213 11.772 0 21.316-6.365 21.316-14.213 0-.06 0-.124-.004-.184v-1.82h-.004V34.76l11.034 6.368c.089.053.184.105.277.154l-.012.026c.301.15.597.314.894.483 7.569 4.372 11.292 12.854 9.971 20.998l.188.03a4.693 4.693 0 0 0 8.512 3.459c.056-.09.116-.18.169-.273.007-.015.019-.033.025-.049.057-.094.113-.188.169-.285 4.589-7.955 5.092-17.146 2.158-25.144z"></path></g><!----></svg>